/* XPM */
static char *cog__________[] = {
/* columns rows colors chars-per-pixel */
"64 64 2 1",
"  c #000000",
". c None",
/* pixels */
"................................................................",
"................................................................",
"................................................................",
"................................................................",
"..........................           ...........................",
"..........................           ...........................",
"..........................           ...........................",
"..........................           ...........................",
".........................             ..........................",
"..............   ........             ........  ................",
".............      ......             ......      ..............",
"............        .....             .....        .............",
"...........          .                   .          ............",
"..........                                          ............",
".........                                            ...........",
".........                                             ..........",
".........                                             ..........",
"..........                                           ...........",
"...........                                         ............",
"...........                                         ............",
"............                                       .............",
".............                                     ..............",
"............                 .....                 .............",
"............              ...........              .............",
"............             .............             .............",
"........                ...............               ..........",
"....                   .................                   .....",
"....                   .................                   .....",
"....                  ..................                   .....",
"....                  ...................                  .....",
"....                  ...................                  .....",
"....                  ...................                  .....",
"....                  ...................                  .....",
"....                  ...................                  .....",
"....                  ..................                   .....",
"....                   .................                   .....",
"....                   .................                   .....",
".........               ...............                .........",
"............             .............             .............",
"............              ...........              .............",
"............                .......                .............",
".............                                     ..............",
"............                                       .............",
"...........                                         ............",
"...........                                         ............",
"..........                                           ...........",
".........                                             ..........",
".........                                             ..........",
"..........                                           ...........",
"..........                                           ...........",
"...........          .                   .          ............",
"............        .....             .....        .............",
".............      ......             ......      ..............",
"...............  ........             ........   ...............",
".........................             ..........................",
"..........................           ...........................",
"..........................           ...........................",
"..........................           ...........................",
"..........................           ...........................",
"................................................................",
"................................................................",
"................................................................",
"................................................................",
"................................................................"
};
