/* XPM */
static char *cursor[] = {
/* columns rows colors chars-per-pixel */
"64 64 98 2",
"   c #333333",
".  c #353535",
"X  c #373737",
"o  c #383838",
"O  c #3B3B3B",
"+  c #3C3C3C",
"@  c #3E3E3E",
"#  c #3F3F3F",
"$  c #414141",
"%  c #434343",
"&  c #444444",
"*  c #494949",
"=  c #4A4A4A",
"-  c #4B4B4B",
";  c #4C4C4C",
":  c #4F4F4F",
">  c #535353",
",  c #545454",
"<  c #565656",
"1  c #575757",
"2  c #595959",
"3  c #5D5D5D",
"4  c #5F5F5F",
"5  c #646464",
"6  c #696969",
"7  c #6B6B6B",
"8  c #6E6E6E",
"9  c #6F6F6F",
"0  c #737373",
"q  c #767676",
"w  c #797979",
"e  c #838383",
"r  c #848484",
"t  c #858585",
"y  c #888888",
"u  c #8B8B8B",
"i  c #8D8D8D",
"p  c #8F8F8F",
"a  c #939393",
"s  c #959595",
"d  c #979797",
"f  c #989898",
"g  c #9B9B9B",
"h  c #A1A1A1",
"j  c #A5A5A5",
"k  c #A6A6A6",
"l  c #A8A8A8",
"z  c #ABABAB",
"x  c #ACACAC",
"c  c #ADADAD",
"v  c #AEAEAE",
"b  c #AFAFAF",
"n  c #B3B3B3",
"m  c #B5B5B5",
"M  c #B7B7B7",
"N  c #BABABA",
"B  c #BBBBBB",
"V  c #BFBFBF",
"C  c #C2C2C2",
"Z  c #C3C3C3",
"A  c #C5C5C5",
"S  c #C7C7C7",
"D  c #C9C9C9",
"F  c #CACACA",
"G  c #CBCBCB",
"H  c #CCCCCC",
"J  c #CDCDCD",
"K  c #CECECE",
"L  c #CFCFCF",
"P  c #D0D0D0",
"I  c #D1D1D1",
"U  c #D2D2D2",
"Y  c #D3D3D3",
"T  c #D4D4D4",
"R  c #D5D5D5",
"E  c #D6D6D6",
"W  c #D7D7D7",
"Q  c #D8D8D8",
"!  c #DBDBDB",
"~  c #DDDDDD",
"^  c #DFDFDF",
"/  c #E3E3E3",
"(  c #E4E4E4",
")  c #E7E7E7",
"_  c #EBEBEB",
"`  c #ECECEC",
"'  c #EFEFEF",
"]  c #F2F2F2",
"[  c #F3F3F3",
"{  c #F4F4F4",
"}  c #F5F5F5",
"|  c #F6F6F6",
" . c #F7F7F7",
".. c #F9F9F9",
"X. c #FAFAFA",
"o. c #FEFEFE",
"O. c #FFFFFF",
"+. c None",
/* pixels */
"+.+.+.+.+.+.+.+.+.+.+.+.+.+.+.        +.+.+.+.+.+.+.+.+.+.+.+.+.+.+.+.+.+.+.+.+.+.+.+.+.+.+.+.+.+.+.+.+.+.+.+.+.+.+.+.+.+.+.+.+.",
"+.+.+.+.+.+.+.+.+.+.+.+.+.+.              +.+.+.+.+.+.+.+.+.+.+.+.+.+.+.+.+.+.+.+.+.+.+.+.+.+.+.+.+.+.+.+.+.+.+.+.+.+.+.+.+.+.+.",
"+.+.+.+.+.+.+.+.+.+.+.+.+.                  +.+.+.+.+.+.+.+.+.+.+.+.+.+.+.+.+.+.+.+.+.+.+.+.+.+.+.+.+.+.+.+.+.+.+.+.+.+.+.+.+.+.",
"+.+.+.+.+.+.+.+.+.+.+.+.+.                    +.+.+.+.+.+.+.+.+.+.+.+.+.+.+.+.+.+.+.+.+.+.+.+.+.+.+.+.+.+.+.+.+.+.+.+.+.+.+.+.+.",
"+.+.+.+.+.+.+.+.+.+.+.+.                        +.+.+.+.+.+.+.+.+.+.+.+.+.+.+.+.+.+.+.+.+.+.+.+.+.+.+.+.+.+.+.+.+.+.+.+.+.+.+.+.",
"+.+.+.+.+.+.+.+.+.+.+.+.        . b               +.+.+.+.+.+.+.+.+.+.+.+.+.+.+.+.+.+.+.+.+.+.+.+.+.+.+.+.+.+.+.+.+.+.+.+.+.+.+.",
"+.+.+.+.+.+.+.+.+.+.+.+.          T / .             +.+.+.+.+.+.+.+.+.+.+.+.+.+.+.+.+.+.+.+.+.+.+.+.+.+.+.+.+.+.+.+.+.+.+.+.+.+.",
"+.+.+.+.+.+.+.+.+.+.+.+.        . T o._ O             +.+.+.+.+.+.+.+.+.+.+.+.+.+.+.+.+.+.+.+.+.+.+.+.+.+.+.+.+.+.+.+.+.+.+.+.+.",
"+.+.+.+.+.+.+.+.+.+.+.+.          T o.o.{ $             +.+.+.+.+.+.+.+.+.+.+.+.+.+.+.+.+.+.+.+.+.+.+.+.+.+.+.+.+.+.+.+.+.+.+.+.",
"+.+.+.+.+.+.+.+.+.+.+.+.          T o.o.o...*             +.+.+.+.+.+.+.+.+.+.+.+.+.+.+.+.+.+.+.+.+.+.+.+.+.+.+.+.+.+.+.+.+.+.+.",
"+.+.+.+.+.+.+.+.+.+.+.+.          T o.o.o.o.o.,             +.+.+.+.+.+.+.+.+.+.+.+.+.+.+.+.+.+.+.+.+.+.+.+.+.+.+.+.+.+.+.+.+.+.",
"+.+.+.+.+.+.+.+.+.+.+.+.        . T o.o.o.o.o.o.3             +.+.+.+.+.+.+.+.+.+.+.+.+.+.+.+.+.+.+.+.+.+.+.+.+.+.+.+.+.+.+.+.+.",
"+.+.+.+.+.+.+.+.+.+.+.+.          T o.o.o.o.o.o.o.6 .           +.+.+.+.+.+.+.+.+.+.+.+.+.+.+.+.+.+.+.+.+.+.+.+.+.+.+.+.+.+.+.+.",
"+.+.+.+.+.+.+.+.+.+.+.+.          Y o.o.o.o.o.o.o.o.q               +.+.+.+.+.+.+.+.+.+.+.+.+.+.+.+.+.+.+.+.+.+.+.+.+.+.+.+.+.+.",
"+.+.+.+.+.+.+.+.+.+.+.+.          Y o.o.o.o.o.o.o.o.o.t               +.+.+.+.+.+.+.+.+.+.+.+.+.+.+.+.+.+.+.+.+.+.+.+.+.+.+.+.+.",
"+.+.+.+.+.+.+.+.+.+.+.+.          T o.o.o.o.o.o.o.o.o.o.s               +.+.+.+.+.+.+.+.+.+.+.+.+.+.+.+.+.+.+.+.+.+.+.+.+.+.+.+.",
"+.+.+.+.+.+.+.+.+.+.+.+.          Y o.o.o.o.o.o.o.o.o.o.o.k               +.+.+.+.+.+.+.+.+.+.+.+.+.+.+.+.+.+.+.+.+.+.+.+.+.+.+.",
"+.+.+.+.+.+.+.+.+.+.+.+.          Y o.o.o.o.o.o.o.o.o.o.o.o.m               +.+.+.+.+.+.+.+.+.+.+.+.+.+.+.+.+.+.+.+.+.+.+.+.+.+.",
"+.+.+.+.+.+.+.+.+.+.+.+.          Y o.o.o.o.o.o.o.o.o.o.o.o.o.A               +.+.+.+.+.+.+.+.+.+.+.+.+.+.+.+.+.+.+.+.+.+.+.+.+.",
"+.+.+.+.+.+.+.+.+.+.+.+.          Y o.o.o.o.o.o.o.o.o.o.o.o.o.o.K               +.+.+.+.+.+.+.+.+.+.+.+.+.+.+.+.+.+.+.+.+.+.+.+.",
"+.+.+.+.+.+.+.+.+.+.+.+.          Y o.o.o.o.o.o.o.o.o.o.o.o.o.o.o.~               +.+.+.+.+.+.+.+.+.+.+.+.+.+.+.+.+.+.+.+.+.+.+.",
"+.+.+.+.+.+.+.+.+.+.+.+.          Y o.o.o.o.o.o.o.o.o.o.o.o.o.o.o.o.( .             +.+.+.+.+.+.+.+.+.+.+.+.+.+.+.+.+.+.+.+.+.+.",
"+.+.+.+.+.+.+.+.+.+.+.+.          Y o.o.o.o.o.o.o.o.o.o.o.o.o.o.o.o.o.` @             +.+.+.+.+.+.+.+.+.+.+.+.+.+.+.+.+.+.+.+.+.",
"+.+.+.+.+.+.+.+.+.+.+.+.          K o.o.o.o.o.o.o.o.o.o.o.o.o.o.o.o.o.o.{ $             +.+.+.+.+.+.+.+.+.+.+.+.+.+.+.+.+.+.+.+.",
"+.+.+.+.+.+.+.+.+.+.+.+.          K o.o.o.o.o.o.o.o.o.o.o.o.o.o.o.o.o.o.o...; .           +.+.+.+.+.+.+.+.+.+.+.+.+.+.+.+.+.+.+.",
"+.+.+.+.+.+.+.+.+.+.+.+.          K o.o.o.o.o.o.o.o.o.o.o.o.o.o.o.o.o.o.o.o.o.,             +.+.+.+.+.+.+.+.+.+.+.+.+.+.+.+.+.+.",
"+.+.+.+.+.+.+.+.+.+.+.+.          K o.o.o.o.o.o.o.o.o.o.o.o.o.o.o.o.o.o.o.o.o.o.5             +.+.+.+.+.+.+.+.+.+.+.+.+.+.+.+.+.",
"+.+.+.+.+.+.+.+.+.+.+.+.          Y o.o.o.o.o.o.o.o.o.o.o.o.o.o.o.o.o.o.o.o.o.o.o.6             +.+.+.+.+.+.+.+.+.+.+.+.+.+.+.+.",
"+.+.+.+.+.+.+.+.+.+.+.+.          K o.o.o.o.o.o.o.o.o.o.o.o.o.o.o.o.o.o.o.o.o.o.o.o.w .             +.+.+.+.+.+.+.+.+.+.+.+.+.+.",
"+.+.+.+.+.+.+.+.+.+.+.+.          K o.o.o.o.o.o.o.o.o.o.o.o.o.o.o.o.o.o.o.o.o.o.o.o.o.y               +.+.+.+.+.+.+.+.+.+.+.+.+.",
"+.+.+.+.+.+.+.+.+.+.+.+.          K o.o.o.o.o.o.o.o.o.o.o.o.o.o.o.o.o.o.o.o.o.o.o.o.o.o.f               +.+.+.+.+.+.+.+.+.+.+.+.",
"+.+.+.+.+.+.+.+.+.+.+.+.          K o.o.o.o.o.o.o.o.o.o.o.o.o.o.o.o.o.o.o.o.o.o.o.o.o.o.o.l               +.+.+.+.+.+.+.+.+.+.+.",
"+.+.+.+.+.+.+.+.+.+.+.+.          K o.o.o.o.o.o.o.o.o.o.o.o.o.o.o.o.o.o.o.o.o.o.o.o.o.o.o.o.N               +.+.+.+.+.+.+.+.+.+.",
"+.+.+.+.+.+.+.+.+.+.+.+.          K o.o.o.o.o.o.o.o.o.o.o.o.o.o.o.o.o.o.o.o.o.o.o.o.o.o.o.o.o.A             +.+.+.+.+.+.+.+.+.+.",
"+.+.+.+.+.+.+.+.+.+.+.+.          K o.o.o.o.o.o.o.o.o.o.o.o.o.o.o.o.o.o.o.o.o.o.o.o.o.o.o.o.o.o.T           +.+.+.+.+.+.+.+.+.+.",
"+.+.+.+.+.+.+.+.+.+.+.+.          K o.o.o.o.o.o.o.o.o.o.o.o.o.o.o.o.o.o.o.o.o.o.o.o.o._ Q C b f t ,           +.+.+.+.+.+.+.+.+.",
"+.+.+.+.+.+.+.+.+.+.+.+.          G o.o.o.o.o.o.o.o.o.o.o.o.o.o.o.o.C l f e 8 2 &                           +.+.+.+.+.+.+.+.+.+.",
"+.+.+.+.+.+.+.+.+.+.+.+.          G o.o.o.o.o.o.o.o.o.o.o.o.o.o.o.o.8                                       +.+.+.+.+.+.+.+.+.+.",
"+.+.+.+.+.+.+.+.+.+.+.+.          G o.o.o.o.o.o.o.o.o.o.o.o.o.o.o.o./                                     +.+.+.+.+.+.+.+.+.+.+.",
"+.+.+.+.+.+.+.+.+.+.+.+.          K o.o.o.o.o.o.o.o.o.{ a o.o.o.o.o.o.3                                 +.+.+.+.+.+.+.+.+.+.+.+.",
"+.+.+.+.+.+.+.+.+.+.+.+.          G o.o.o.o.o.o.o.o.] @   { o.o.o.o.o.G .                     +.+.+.+.+.+.+.+.+.+.+.+.+.+.+.+.+.",
"+.+.+.+.+.+.+.+.+.+.+.+.          G o.o.o.o.o.o.o.( . . . f o.o.o.o.o.o.*           +.+.+.+.+.+.+.+.+.+.+.+.+.+.+.+.+.+.+.+.+.+.",
"+.+.+.+.+.+.+.+.+.+.+.+.          G o.o.o.o.o.o.~         . o.o.o.o.o.o.m           +.+.+.+.+.+.+.+.+.+.+.+.+.+.+.+.+.+.+.+.+.+.",
"+.+.+.+.+.+.+.+.+.+.+.+.          G o.o.o.o.o.T             N o.o.o.o.o.o.O         +.+.+.+.+.+.+.+.+.+.+.+.+.+.+.+.+.+.+.+.+.+.",
"+.+.+.+.+.+.+.+.+.+.+.+.          G o.o.o.o.G               , o.o.o.o.o.o.h           +.+.+.+.+.+.+.+.+.+.+.+.+.+.+.+.+.+.+.+.+.",
"+.+.+.+.+.+.+.+.+.+.+.+.          G o.o.o.N                   Q o.o.o.o.o.o.          +.+.+.+.+.+.+.+.+.+.+.+.+.+.+.+.+.+.+.+.+.",
"+.+.+.+.+.+.+.+.+.+.+.+.          G o.o.l                     0 o.o.o.o.o.o.i           +.+.+.+.+.+.+.+.+.+.+.+.+.+.+.+.+.+.+.+.",
"+.+.+.+.+.+.+.+.+.+.+.+.          A o.f                         { o.o.o.o.o.{ .         +.+.+.+.+.+.+.+.+.+.+.+.+.+.+.+.+.+.+.+.",
"+.+.+.+.+.+.+.+.+.+.+.+.        . Y y               +.          s o.o.o.o.o.o.w           +.+.+.+.+.+.+.+.+.+.+.+.+.+.+.+.+.+.+.",
"+.+.+.+.+.+.+.+.+.+.+.+.        . ,               +.+.+.        . o.o.o.o.o.o.(           +.+.+.+.+.+.+.+.+.+.+.+.+.+.+.+.+.+.+.",
"+.+.+.+.+.+.+.+.+.+.+.+.                        +.+.+.+.          n o.o.o.o.o.o.5           +.+.+.+.+.+.+.+.+.+.+.+.+.+.+.+.+.+.",
"+.+.+.+.+.+.+.+.+.+.+.+.+.                  +.+.+.+.+.+.        . ; o.o.o.o.o.o.K           +.+.+.+.+.+.+.+.+.+.+.+.+.+.+.+.+.+.",
"+.+.+.+.+.+.+.+.+.+.+.+.+.                +.+.+.+.+.+.+.+.          T o.o.o.o.o.o.>           +.+.+.+.+.+.+.+.+.+.+.+.+.+.+.+.+.",
"+.+.+.+.+.+.+.+.+.+.+.+.+.+.            +.+.+.+.+.+.+.+.+.          0 o.o.o.o.o.o.B           +.+.+.+.+.+.+.+.+.+.+.+.+.+.+.+.+.",
"+.+.+.+.+.+.+.+.+.+.+.+.+.+.+.+.+.+.+.+.+.+.+.+.+.+.+.+.+.+.          ] o.o.o.o.o.o.@           +.+.+.+.+.+.+.+.+.+.+.+.+.+.+.+.",
"+.+.+.+.+.+.+.+.+.+.+.+.+.+.+.+.+.+.+.+.+.+.+.+.+.+.+.+.+.+.          i o.o.o.o.o.o.k           +.+.+.+.+.+.+.+.+.+.+.+.+.+.+.+.",
"+.+.+.+.+.+.+.+.+.+.+.+.+.+.+.+.+.+.+.+.+.+.+.+.+.+.+.+.+.+.+.          o.o.o.o.o.o.K           +.+.+.+.+.+.+.+.+.+.+.+.+.+.+.+.",
"+.+.+.+.+.+.+.+.+.+.+.+.+.+.+.+.+.+.+.+.+.+.+.+.+.+.+.+.+.+.+.          b o.o.o.n ;             +.+.+.+.+.+.+.+.+.+.+.+.+.+.+.+.",
"+.+.+.+.+.+.+.+.+.+.+.+.+.+.+.+.+.+.+.+.+.+.+.+.+.+.+.+.+.+.+.          * o.f .               +.+.+.+.+.+.+.+.+.+.+.+.+.+.+.+.+.",
"+.+.+.+.+.+.+.+.+.+.+.+.+.+.+.+.+.+.+.+.+.+.+.+.+.+.+.+.+.+.+.+.        .     .               +.+.+.+.+.+.+.+.+.+.+.+.+.+.+.+.+.",
"+.+.+.+.+.+.+.+.+.+.+.+.+.+.+.+.+.+.+.+.+.+.+.+.+.+.+.+.+.+.+.+.                            +.+.+.+.+.+.+.+.+.+.+.+.+.+.+.+.+.+.",
"+.+.+.+.+.+.+.+.+.+.+.+.+.+.+.+.+.+.+.+.+.+.+.+.+.+.+.+.+.+.+.+.+.                      +.+.+.+.+.+.+.+.+.+.+.+.+.+.+.+.+.+.+.+.",
"+.+.+.+.+.+.+.+.+.+.+.+.+.+.+.+.+.+.+.+.+.+.+.+.+.+.+.+.+.+.+.+.+.+.                +.+.+.+.+.+.+.+.+.+.+.+.+.+.+.+.+.+.+.+.+.+.",
"+.+.+.+.+.+.+.+.+.+.+.+.+.+.+.+.+.+.+.+.+.+.+.+.+.+.+.+.+.+.+.+.+.+.+.        +.+.+.+.+.+.+.+.+.+.+.+.+.+.+.+.+.+.+.+.+.+.+.+.+."
};
