/* XPM */
static char * cursor_skinny_xpm[] = {
"43 64 50 1",
" 	c None",
".	c #333333",
"+	c #353535",
"@	c #AFAFAF",
"#	c #D4D4D4",
"$	c #E3E3E3",
"%	c #FEFEFE",
"&	c #EBEBEB",
"*	c #3B3B3B",
"=	c #F4F4F4",
"-	c #414141",
";	c #F9F9F9",
">	c #494949",
",	c #545454",
"'	c #5D5D5D",
")	c #696969",
"!	c #D3D3D3",
"~	c #767676",
"{	c #858585",
"]	c #959595",
"^	c #A6A6A6",
"/	c #B5B5B5",
"(	c #C5C5C5",
"_	c #CECECE",
":	c #DDDDDD",
"<	c #E4E4E4",
"[	c #ECECEC",
"}	c #3E3E3E",
"|	c #4C4C4C",
"1	c #646464",
"2	c #797979",
"3	c #888888",
"4	c #989898",
"5	c #A8A8A8",
"6	c #BABABA",
"7	c #D8D8D8",
"8	c #C2C2C2",
"9	c #CBCBCB",
"0	c #838383",
"a	c #6E6E6E",
"b	c #595959",
"c	c #444444",
"d	c #939393",
"e	c #F2F2F2",
"f	c #A1A1A1",
"g	c #737373",
"h	c #8D8D8D",
"i	c #B3B3B3",
"j	c #535353",
"k	c #BBBBBB",
"   ....                                    ",
"  .......                                  ",
" .........                                 ",
" ..........                                ",
"............                               ",
"....+@.......                              ",
".....#$+......                             ",
"....+#%&*......                            ",
".....#%%=-......                           ",
".....#%%%;>......                          ",
".....#%%%%%,......                         ",
"....+#%%%%%%'......                        ",
".....#%%%%%%%)+.....                       ",
".....!%%%%%%%%~.......                     ",
".....!%%%%%%%%%{.......                    ",
".....#%%%%%%%%%%].......                   ",
".....!%%%%%%%%%%%^.......                  ",
".....!%%%%%%%%%%%%/.......                 ",
".....!%%%%%%%%%%%%%(.......                ",
".....!%%%%%%%%%%%%%%_.......               ",
".....!%%%%%%%%%%%%%%%:.......              ",
".....!%%%%%%%%%%%%%%%%<+......             ",
".....!%%%%%%%%%%%%%%%%%[}......            ",
"....._%%%%%%%%%%%%%%%%%%=-......           ",
"....._%%%%%%%%%%%%%%%%%%%;|+.....          ",
"....._%%%%%%%%%%%%%%%%%%%%%,......         ",
"....._%%%%%%%%%%%%%%%%%%%%%%1......        ",
".....!%%%%%%%%%%%%%%%%%%%%%%%)......       ",
"....._%%%%%%%%%%%%%%%%%%%%%%%%2+......     ",
"....._%%%%%%%%%%%%%%%%%%%%%%%%%3.......    ",
"....._%%%%%%%%%%%%%%%%%%%%%%%%%%4.......   ",
"....._%%%%%%%%%%%%%%%%%%%%%%%%%%%5.......  ",
"....._%%%%%%%%%%%%%%%%%%%%%%%%%%%%6....... ",
"....._%%%%%%%%%%%%%%%%%%%%%%%%%%%%%(...... ",
"....._%%%%%%%%%%%%%%%%%%%%%%%%%%%%%%#..... ",
"....._%%%%%%%%%%%%%%%%%%%%%%%%%&78@4{,.....",
".....9%%%%%%%%%%%%%%%%8540abc............. ",
".....9%%%%%%%%%%%%%%%%a................... ",
".....9%%%%%%%%%%%%%%%%$..................  ",
"....._%%%%%%%%%=d%%%%%%'................   ",
".....9%%%%%%%%e}.=%%%%%9+..........        ",
".....9%%%%%%%<+++4%%%%%%>.....             ",
".....9%%%%%%:....+%%%%%%/.....             ",
".....9%%%%%#......6%%%%%%*....             ",
".....9%%%%9.......,%%%%%%f.....            ",
".....9%%%6.........7%%%%%%.....            ",
".....9%%5..........g%%%%%%h.....           ",
".....(%4............=%%%%%=+....           ",
"....+!3....... .....]%%%%%%2.....          ",
"....+,.......   ....+%%%%%%<.....          ",
"............    .....i%%%%%%1.....         ",
" .........      ....+|%%%%%%_.....         ",
" ........        .....#%%%%%%j.....        ",
"  ......         .....g%%%%%%k.....        ",
"                  .....e%%%%%%}.....       ",
"                  .....h%%%%%%^.....       ",
"                   .....%%%%%%_.....       ",
"                   .....@%%%i|......       ",
"                   .....>%4+.......        ",
"                    ....+..+.......        ",
"                    ..............         ",
"                     ...........           ",
"                      ........             ",
"                       ....                "};
