/* XPM */
static char * icon_xpm[] = {
"16 16 106 2",
"  	c None",
". 	c #000000",
"+ 	c #000202",
"@ 	c #281811",
"# 	c #100805",
"$ 	c #8D4727",
"% 	c #27130A",
"& 	c #B55E34",
"* 	c #FF8543",
"= 	c #F57D41",
"- 	c #090503",
"; 	c #C76637",
"> 	c #FF8041",
", 	c #FF8644",
"' 	c #4D2614",
") 	c #000001",
"! 	c #FF8B4C",
"~ 	c #FF8141",
"{ 	c #190C06",
"] 	c #060606",
"^ 	c #FF8242",
"/ 	c #FF8344",
"( 	c #010100",
"_ 	c #0B0101",
": 	c #080101",
"< 	c #FF8C4B",
"[ 	c #EE783E",
"} 	c #140905",
"| 	c #F07D44",
"1 	c #EB763D",
"2 	c #F67C3F",
"3 	c #EF783E",
"4 	c #FF8142",
"5 	c #D86D3A",
"6 	c #0E0703",
"7 	c #482517",
"8 	c #FE8041",
"9 	c #FF8241",
"0 	c #522B1B",
"a 	c #FF8846",
"b 	c #331A13",
"c 	c #FF8443",
"d 	c #472316",
"e 	c #D26B3A",
"f 	c #552C1B",
"g 	c #5C2F1A",
"h 	c #FE7F41",
"i 	c #FF8745",
"j 	c #F47B3F",
"k 	c #FC7F41",
"l 	c #FF8343",
"m 	c #462516",
"n 	c #733A1E",
"o 	c #D36B39",
"p 	c #FD7F41",
"q 	c #E1713A",
"r 	c #D46A36",
"s 	c #1B0E08",
"t 	c #3D1F12",
"u 	c #FF8342",
"v 	c #311A0F",
"w 	c #190D0A",
"x 	c #B65C31",
"y 	c #DC703C",
"z 	c #DF713C",
"A 	c #CE6939",
"B 	c #190C09",
"C 	c #532A19",
"D 	c #D06C3B",
"E 	c #452314",
"F 	c #F87D40",
"G 	c #FF8243",
"H 	c #AD5833",
"I 	c #50281B",
"J 	c #4C271A",
"K 	c #542B1C",
"L 	c #B25D35",
"M 	c #090403",
"N 	c #030606",
"O 	c #020000",
"P 	c #C66637",
"Q 	c #050101",
"R 	c #E5733B",
"S 	c #BD5F31",
"T 	c #000002",
"U 	c #602E1A",
"V 	c #F37D44",
"W 	c #FF8C4D",
"X 	c #E7763F",
"Y 	c #38180E",
"Z 	c #04A052",
"` 	c #004825",
" .	c #004523",
"..	c #00552D",
"+.	c #05AC58",
"@.	c #055E31",
"#.	c #010000",
"$.	c #02150B",
"%.	c #04CA67",
"&.	c #00FF82",
"*.	c #00FF84",
"=.	c #00FF85",
"-.	c #00FF83",
";.	c #00FE81",
">.	c #06E074",
",.	c #03180C",
"      .               + @ . +   ",
"    # $ % .         . & * = -   ",
"  . ; > , ' )       . ! > ~ {   ",
"  ] ^ > > / ) ( _ : . < > [ }   ",
"  . | > > > 1 2 > > 3 4 > 5 6   ",
"  7 > > 8 9 > > > > , ^ > > 0   ",
"  7 > > a b c > > ~ d e > > f   ",
"  g > > h i > j k > l ~ > > m   ",
"  n > ~ o p > > > > q r > ~ s   ",
"  t ~ u v w x y z A B C > D )   ",
"  . E F G H I J K K L l F M     ",
"    N O P ~ > > > > ~ o Q +     ",
"        . R > > > > S .         ",
"        T U V W W X Y           ",
"        O Z `  . ...+.@.#.      ",
"      $.%.&.*.=.=.-.;.-.>.,.    "};
