/* XPM */
static char *reconstruct[] = {
/* columns rows colors chars-per-pixel */
"128 64 2 1",
"  c #000000",
". c None",
/* pixels */
"................................................................................................................................",
"................................................................................................................................",
"................................................................................................................................",
"................................................................................................................................",
"................................................................................................................................",
"................................................................................................................................",
"................................................................................................................................",
"................................................................................................................................",
"................................................................................................................................",
"..........................                         .............................................................................",
".........................                           ............................................................................",
"........................                             ...........................................................................",
".......................    .......................    .....................................                      ...............",
".......................   .........................   ................................                               ...........",
".......................   .........................    ..............................                                 ..........",
".......................   .........................    .............................                                   .........",
"...................                         ........   ............................      .........................      ........",
"..................                           ......    ............................     ............................    ........",
".................                             .....    ............................    .............................     .......",
"................    ...   .................    ....    ............................   ...............................    .......",
"................   ....   ..................   ....    ............................   ...............................    .......",
"................   ....   ..................    ...    ...........................    ...............................    .......",
"................   ....   ..................    ...    ...........................    ...............................    .......",
"............                         ........   ...    ...........................    ...............................    .......",
"...........                           ......    ...    ............. .............    ...............................    .......",
"..........                             .....    ...    ............   ............    ...............................    .......",
".........    ...   ....   ..........    ....    ...    ...........     ...........    ...............................    .......",
".........   ....   ....   ...........   ....    ...    ............     ..........    ...............................    .......",
".........   ....   ....   ...........    ...    ...    .............     .........    ...............................    .......",
".........   ....   ....   ...........    ...    ...    ..............     ........    ...............................    .......",
".........   ....   ....   ............   ...    ...    .......             .......    ...............................    .......",
".........   ....   ....   ...........    ...    ...    ......               ......    ...............................    .......",
".........   ....   ....   ...........    ...    ...    ......               ......    ...............................    .......",
".........   ....   ....   ...........    ...    ...    .......             .......    ...............................    .......",
".........   ....   ....   ...........    ...    ...    ..............     ........    ...............................    .......",
".........   ....   ....   ...........    ...    ...    .............     .........    ...............................    .......",
".........   ....   ....    ..........    ...    ..    .............     ..........    ...............................    .......",
".........   ....   .....      .                       ............     ...........    ...............................    .......",
".........   ....   ......                            ..............   ............    ...............................    .......",
".........   ....   .......                          ................ .............    ...............................    .......",
".........   ....   .........                      ................................    ...............................    .......",
".........   ....   ..................    ...    ..................................    ...............................    .......",
".........   ....   ..................    ...    ..................................    ...............................    .......",
".........   ....    .................    ..    ....................................   ...............................    .......",
".........   .....      .                       ....................................    ..............................    .......",
".........   ......                            .....................................    .............................    ........",
".........   .......                          ......................................      ..........................     ........",
".........   .........                      .........................................                                   .........",
".........   .........................    ............................................                                 ..........",
".........   .........................    .............................................                               ...........",
".........    .......................    ................................................                           .............",
"..........      .                       ........................................................................................",
"...........                            .........................................................................................",
"............                          ..........................................................................................",
"..............                      ............................................................................................",
"................................................................................................................................",
"................................................................................................................................",
"................................................................................................................................",
"................................................................................................................................",
"................................................................................................................................",
"................................................................................................................................",
"................................................................................................................................",
"................................................................................................................................",
"................................................................................................................................"
};
