/* XPM */
static char *male__________[] = {
/* columns rows colors chars-per-pixel */
"64 64 73 1",
"  c #000000",
". c #090000",
"X c #0A0000",
"o c #120101",
"O c #130101",
"+ c #140101",
"@ c #150101",
"# c #160101",
"$ c #250202",
"% c #260202",
"& c #270202",
"* c #280202",
"= c #290202",
"- c #2A0202",
"; c #2B0202",
": c #2C0202",
"> c #2D0202",
", c #2E0202",
"< c #4A0404",
"1 c #4C0404",
"2 c #4E0404",
"3 c #4F0404",
"4 c #510404",
"5 c #530505",
"6 c #540505",
"7 c #550505",
"8 c #560505",
"9 c #580505",
"0 c #590505",
"q c #5A0505",
"w c #5B0505",
"e c #700606",
"r c #730606",
"t c #750707",
"y c #770707",
"u c #7B0707",
"i c #7D0707",
"p c #7E0707",
"a c #7F0707",
"s c #830707",
"d c #850808",
"f c #860808",
"g c #880808",
"h c #890808",
"j c #950909",
"k c #990909",
"l c #9D0909",
"z c #9F0909",
"x c #A30909",
"c c #A60A0A",
"v c #A80A0A",
"b c #AA0A0A",
"n c #AE0A0A",
"m c #B10A0A",
"M c #B30A0A",
"N c #B40A0A",
"B c #B60B0B",
"V c #BA0B0B",
"C c #BF0B0B",
"Z c #C40B0B",
"A c #C70C0C",
"S c #CC0C0C",
"D c #D00C0C",
"F c #D30C0C",
"G c #D40C0C",
"H c #DA0D0D",
"J c #DD0D0D",
"K c #DF0D0D",
"L c #E10D0D",
"P c #E30D0D",
"I c #E50D0D",
"U c #E70E0E",
"Y c None",
/* pixels */
"YYYYYYYYYYYYYYYYYYYYYYYYYYYY      YYYYYYYYYYYYYYYYYYYYYYYYYYYYYY",
"YYYYYYYYYYYYYYYYYYYYYYYYYY          YYYYYYYYYYYYYYYYYYYYYYYYYYYY",
"YYYYYYYYYYYYYYYYYYYYYYYYY            YYYYYYYYYYYYYYYYYYYYYYYYYYY",
"YYYYYYYYYYYYYYYYYYYYYYYY              YYYYYYYYYYYYYYYYYYYYYYYYYY",
"YYYYYYYYYYYYYYYYYYYYYYYY              YYYYYYYYYYYYYYYYYYYYYYYYYY",
"YYYYYYYYYYYYYYYYYYYYYYY                YYYYYYYYYYYYYYYYYYYYYYYYY",
"YYYYYYYYYYYYYYYYYYYYYYY                YYYYYYYYYYYYYYYYYYYYYYYYY",
"YYYYYYYYYYYYYYYYYYYYYYY                YYYYYYYYYYYYYYYYYYYYYYYYY",
"YYYYYYYYYYYYYYYYYYYYYYY                YYYYYYYYYYYYYYYYYYYYYYYYY",
"YYYYYYYYYYYYYYYYYYYYYYY                YYYYYYYYYYYYYYYYYYYYYYYYY",
"YYYYYYYYYYYYYYYYYYYYYYY                YYYYYYYYYYYYYYYYYYYYYYYYY",
"YYYYYYYYYYYYYYYYYYYYYYYY              YYYYYYYYYYYYYYYYYYYYYYYYYY",
"YYYYYYYYYYYYYYYYYYYYYYYY              YYYYYYYYYYYYYYYYYYYYYYYYYY",
"YYYYYYYYYYYYYYYYYYYYYYYYY            YYYYYYYYYYYYYYYYYYYYYYYYYYY",
"YYYYYYYYYYYYYYYYYYYYYYYYYY          YYYYYYYYYYYYYYYYYYYYYYYYYYYY",
"YYYYYYYYYYYYYYYYYYYYYYYYYYYY      YYYYYYYYYYYYYYYYYYYYYYYYYYYYYY",
"YYYYYYYYYYYYYYYYYYYYYYYYYYYYYYYYYYYYYYYYYYYYYYYYYYYYYYYYYYYYYYYY",
"YYYYYYYYYYYYYYYYYYYYYYYYYYYYYYYYYYYYYYYYYYYYYYYYYYYYYYYYYYYYYYYY",
"YYYYYYYYYYYYYYYYY                             YYYYYYYYYYYYYYYYYY",
"YYYYYYYYYYYYYYYY                               YYYYYYYYYYYYYYYYY",
"YYYYYYYYYYYYYYY                                 YYYYYYYYYYYYYYYY",
"YYYYYYYYYYYYYY                                   YYYYYYYYYYYYYYY",
"YYYYYYYYYYYYY                                     YYYYYYYYYYYYYY",
"YYYYYYYYYYYYY                                     YYYYYYYYYYYYYY",
"YYYYYYYYYYYYY                                     YYYYYYYYYYYYYY",
"YYYYYYYYYYYYY                                     YYYYYYYYYYYYYY",
"YYYYYYYYYYYYY...........XXXXXXXX.XXXXXXX..........YYYYYYYYYYYYYY",
"YYYYYYYYYYYYYooooo@@YY@@@@@#####@@###@@@YYY@@@o@@@YYYYYYYYYYYYYY",
"YYYYYYYYYYYYY$$$***:YY:::::::,:,,,,:::::YYY****$$$YYYYYYYYYYYYYY",
"YYYYYYYYYYYYY<333447YY77wwwwwwwwwwwwwwwwYYY7774333YYYYYYYYYYYYYY",
"YYYYYYYYYYYYYeettuiiUUddddddhhhhhhhhhdddUUUaaauyyeYYYYYYYYYYYYYY",
"YYYYYYYUUUUUUjkzxxccUUnmNNNVVNBBBVBBBNNNUUUbccxzzkUUUUUUUYYYYYYY",
"YYYYUUUUUUUUUVCZASFFUUHKKLKULUUUUUUULLLKUUUGFFSAZCUUUUUUUUUUYYYY",
"YYYYYYYYYYYYY       YY                  YYY       YYYYYYYYYYYYYY",
"YYYYYYYYYYYYY       YY                  YYY       YYYYYYYYYYYYYY",
"YYYYYYYYYYYYY       YY                  YYY       YYYYYYYYYYYYYY",
"YYYYYYYYYYYYY       YY                  YYY       YYYYYYYYYYYYYY",
"YYYYYYYYYYYYY       YY                  YYY       YYYYYYYYYYYYYY",
"YYYYYYYYYYYYY       YY                  YYY       YYYYYYYYYYYYYY",
"YYYYYYYYYYYYY       YY                  YYY       YYYYYYYYYYYYYY",
"YYYYYYYYYYYYY       YY                  YYY       YYYYYYYYYYYYYY",
"YYYYYYYYYYYYYY     YYY                  YYYY     YYYYYYYYYYYYYYY",
"YYYYYYYYYYYYYYY   YYYY                  YYYYY   YYYYYYYYYYYYYYYY",
"YYYYYYYYYYYYYYYYYYYYYY        YY        YYYYYYYYYYYYYYYYYYYYYYYY",
"YYYYYYYYYYYYYYYYYYYYYY        YY        YYYYYYYYYYYYYYYYYYYYYYYY",
"YYYYYYYYYYYYYYYYYYYYYY        YY        YYYYYYYYYYYYYYYYYYYYYYYY",
"YYYYYYYYYYYYYYYYYYYYYY        YY        YYYYYYYYYYYYYYYYYYYYYYYY",
"YYYYYYYYYYYYYYYYYYYYYY        YY        YYYYYYYYYYYYYYYYYYYYYYYY",
"YYYYYYYYYYYYYYYYYYYYYY        YY        YYYYYYYYYYYYYYYYYYYYYYYY",
"YYYYYYYYYYYYYYYYYYYYYY        YY        YYYYYYYYYYYYYYYYYYYYYYYY",
"YYYYYYYYYYYYYYYYYYYYYY        YY        YYYYYYYYYYYYYYYYYYYYYYYY",
"YYYYYYYYYYYYYYYYYYYYYY        YY        YYYYYYYYYYYYYYYYYYYYYYYY",
"YYYYYYYYYYYYYYYYYYYYYY        YY        YYYYYYYYYYYYYYYYYYYYYYYY",
"YYYYYYYYYYYYYYYYYYYYYY        YY        YYYYYYYYYYYYYYYYYYYYYYYY",
"YYYYYYYYYYYYYYYYYYYYYY        YY        YYYYYYYYYYYYYYYYYYYYYYYY",
"YYYYYYYYYYYYYYYYYYYYYY        YY        YYYYYYYYYYYYYYYYYYYYYYYY",
"YYYYYYYYYYYYYYYYYYYYYY        YY        YYYYYYYYYYYYYYYYYYYYYYYY",
"YYYYYYYYYYYYYYYYYYYYYY        YY        YYYYYYYYYYYYYYYYYYYYYYYY",
"YYYYYYYYYYYYYYYYYYYYYY        YY        YYYYYYYYYYYYYYYYYYYYYYYY",
"YYYYYYYYYYYYYYYYYYYYYY        YY        YYYYYYYYYYYYYYYYYYYYYYYY",
"YYYYYYYYYYYYYYYYYYYYYY        YY        YYYYYYYYYYYYYYYYYYYYYYYY",
"YYYYYYYYYYYYYYYYYYYYYYY      YYYY      YYYYYYYYYYYYYYYYYYYYYYYYY",
"YYYYYYYYYYYYYYYYYYYYYYYY    YYYYYY    YYYYYYYYYYYYYYYYYYYYYYYYYY",
"YYYYYYYYYYYYYYYYYYYYYYYYYYYYYYYYYYYYYYYYYYYYYYYYYYYYYYYYYYYYYYYY"
};
