/* XPM */
static char *visualize[] = {
/* columns rows colors chars-per-pixel */
"64 64 41 1",
"  c #160000",
". c #1A0000",
"X c #1F0A0A",
"o c #220000",
"O c #2B0000",
"+ c #230D0D",
"@ c #2C0B0B",
"# c #340000",
"$ c #3B0000",
"% c #261111",
"& c #2A1414",
"* c #2E1A1A",
"= c #311C1C",
"- c #352020",
"; c #3A2626",
": c #3D2B2B",
"> c #440000",
", c #4C0000",
"< c #530000",
"1 c #5B0000",
"2 c #640000",
"3 c #6B0000",
"4 c #730000",
"5 c #7C0000",
"6 c #422C2C",
"7 c #453232",
"8 c #4B3232",
"9 c #4D3B3B",
"0 c #503F3F",
"q c #544343",
"w c #5D4444",
"e c #5B4A4A",
"r c #645454",
"t c #695A5A",
"y c #746666",
"u c #820000",
"i c #8C0000",
"p c #940000",
"a c #9A0000",
"s c #A20000",
"d c None",
/* pixels */
"dddddddddddddddddddddddddddddddddddddddddddddddddddddddddddddddd",
"dddddddddddddddddddddddddddddddyqqetdddddddddddddddddddddddddddd",
"ddddddddddddddddddddddddddd9:=+     .*9ddddddddddddddddddddddddd",
"dddddddddddddddddddd9*XXX .   .        X&edddddddddddddddddddddd",
"dddddddddddddddddd:X        .  .          +7dddddddddddddddddddd",
"dddddddddddddddd7          ......      ...  .+7ddddddddddddddddd",
"ddddddddddddddd-            ... ...  ......    +9ddddddddddddddd",
"dddddddddddddd*             ...OO$#Ooo.....     .+rddddddddddddd",
"dddddddddddd9X             ..O#$$$$OOO#Oo.o..      9dddddddddddd",
"ddddddddddd%              ooO#$$$$$>,,<,$OOO.       :ddddddddddd",
"ddddddddddX              ..OO$$$$$>,<<<<<<>$O.      .9dddddddddd",
"dddddddddX          .. ..OOO$$$$>>,,,<<<<<<<,$O.     Xeddddddddd",
"ddddddddX             ...OO$$$$>>,,<<,<<11111<>#.   . Xddddddddd",
"ddddddd%            ....oO#$$>$,,,<,<<<1233222<,>o     Xdddddddd",
"dddddd:              . .O#$$>,,<<,<<<24443433311<,O     %ddddddd",
"dddddq                ..O#$><<<<<1112443444432211<,o    .9dddddd",
"ddddd+                 o#$><<<<<123444444444442111<>O    Xdddddd",
"dddd9                  O$$<<<<123334544444uaii54211,$o.. .&ddddd",
"ddddX                 .O$><111223334455uaassaiu5432<,O. ...7dddd",
"ddd:                  oO$><<<123345555issssasauu5332,$O....Xdddd",
"dddX                  .O$,<<1123345uuiasssssssau43331$$.....qddd",
"ddd                   oO,<<1112345uuuisssssssssi44332,$O....6ddd",
"dd:                   .O,<<<<123455uupsssssssssa54432<>$O...&ddd",
"ddX      ..            .><<<<1234u5uiassssssssssu44321,$#O..oddd",
"dd          .         . O,<<<11245uuuaasssssssssi53322<>$Oo..ddd",
"d7                  . .. O<<111134445asssssssssspu4221<,>Oo..:dd",
"d*       ..      .........O><<<<144445aaassssssaai432<,>>$o..+dd",
"dX        . .     .........O>,,<<24444upaaaaaaaaaa5431,,,$... rd",
"dX          . .....o........O$<,<144345iippaaaaaaa5452,,>O. . ;d",
"dX          .  ...oooO.oo.....>,,<34445iiipaaaaaaau442,>$O... &d",
"dX             ...oo.oo..o....O,<,13444iiiiapaaaaau442$$$O....%d",
"d+             ......o.oo.o...o#$>>2333uiiipaaaaaau542$$$O..  &d",
"dX                ...o.o.oooo..OOO#>13235iipaaaapiu53<$$Oo....%d",
"dX               . .....o.o..o.oOOO#$<1115ipppppiiu3<,,$O.....%d",
"d*               .. .....o.oo..OoOOOO$,,,,2uiiiiii51<,>#O.....+d",
"d=                . ......o..o...Oo.oo$>>>,15uiiiu2<,,$Oo.....=d",
"d;                . . ...o...... .... .O$>>,15uu41<<,,OOO.... ;d",
"dq              ..........o....... ....  o#$><11<<<,,>OOo. .  -d",
"dd             .. . . ............ .... ...ooO$,<<<,,OO...    -d",
"dd&          .  ..........o...... .. ..........O$$$$O.....    :d",
"dd:         .... .. . ....o...... ........o.o....ooo... .     dd",
"dddX      ...      .... ...o.o...OO....o.o.o............     %dd",
"ddd%  . ..           ....o..ooooooooo..o.o.o.... ..o.....    edd",
"ddd9  ...          . .. ..ooooooooooO.o.o.o.. .....o.. .    +ddd",
"dddd...             . ....ooooo.ooooo..o....... .......  .  dddd",
"dddd;..           .... ...oooooOooooooo.o................  :dddd",
"dddddX             . .....ooooooo.Ooo.o..... .  ........  +ddddd",
"ddddd;         .  .... ....ooooooO.oo...... ............Xodddddd",
"ddddddX          .... . ...oooooOoo... .. .  . .......ooowdddddd",
"dddddd9        ........ .....Ooo.... ..... ...........oo@ddddddd",
"ddddddd&      ... .. . .....o......... . . .. ... . .OOOwddddddd",
"dddddddd*    . ... ................. .. .  ...........o8dddddddd",
"ddddddddd+    .. .... ........... ....     ... . .  ..8ddddddddd",
"dddddddddd*     ... ... ..o.o..... ..       .       .6dddddddddd",
"ddddddddddd=   .. .. .....o........                 =ddddddddddd",
"dddddddddddd:   . . .. ......... .                 -dddddddddddd",
"ddddddddddddd7X  . ..............                 %ddddddddddddd",
"ddddddddddddddd* X........ . .                   =dddddddddddddd",
"dddddddddddddddd7o...... ......                X;ddddddddddddddd",
"dddddddddddddddddd6. ..... .. .              +7ddddddddddddddddd",
"dddddddddddddddddddd6@.. .....            X*dddddddddddddddddddd",
"ddddddddddddddddddddddd;X   ...         %qdddddddddddddddddddddd",
"ddddddddddddddddddddddddde6===&+++XXX+&edddddddddddddddddddddddd",
"dddddddddddddddddddddddddddddddddddddddddddddddddddddddddddddddd"
};
